Coordinates
version=1
nRows=15
nColumns=46
inDegrees=yes

Units are S.I. units (second, meters, Newtons, ...)
Angles are in degrees.

endheader
time	pelvis_tilt	pelvis_list	pelvis_rotation	pelvis_tx	pelvis_ty	pelvis_tz	bb_angle	bb_tx	bb_ty	bb_tz	hip_flexion_r	hip_adduction_r	hip_rotation_r	knee_angle_r	knee_angle_r_beta	ankle_angle_r	subtalar_angle_r	mtp_angle_r	crank_angle_r	hip_flexion_l	hip_adduction_l	hip_rotation_l	knee_angle_l	knee_angle_l_beta	ankle_angle_l	subtalar_angle_l	mtp_angle_l	crank_angle_l	lumbar_extension	lumbar_bending	lumbar_rotation	arm_flex_r	arm_add_r	arm_rot_r	elbow_flex_r	pro_sup_r	wrist_flex_r	wrist_dev_r	arm_flex_l	arm_add_l	arm_rot_l	elbow_flex_l	pro_sup_l	wrist_flex_l	wrist_dev_l
      5.00500000	    -21.44658042	     -3.74830875	      5.04996484	      0.44240998	      1.20212964	     -0.20126908	      0.00000000	      0.50000000	      0.00000000	      0.25000000	     53.89029256	     -6.28972954	     -5.10093268	     94.05915104	      1.64164188	     -5.25109962	     -1.51408780	      0.00000000	      0.00000000	     44.35747584	     -8.99524665	      0.25620163	     44.55318448	      0.77759976	      2.19458320	      4.14427151	      0.00000000	      0.00000000	    -59.96568722	      5.41141543	      0.86935989	     41.62505899	    -21.05882172	     19.99468225	     81.63383366	     48.31888574	      0.00000000	      0.00000000	     41.99668617	    -33.83247079	     26.74800407	     83.67570238	     50.47132061	      0.00000000	      0.00000000
      5.01000000	    -21.34118266	     -4.33845205	      4.86196870	      0.44193782	      1.20066493	     -0.20175697	      0.00000000	      0.50000000	      0.00000000	      0.25000000	     55.16045415	     -5.96339717	     -5.34368132	     95.95561422	      1.67474140	     -4.38850910	     -1.66600910	      0.00000000	      0.00000000	     43.23133659	     -9.57252935	      0.43145650	     42.94350016	      0.74950547	      0.62213837	      4.53706612	      0.00000000	      0.00000000	    -59.78560456	      6.02297934	      1.40515453	     41.78830928	    -20.97492999	     20.14440132	     81.54552598	     48.31093477	      0.00000000	      0.00000000	     41.53215437	    -33.77231134	     26.63445704	     83.59948544	     50.43784565	      0.00000000	      0.00000000
      5.01500000	    -21.19977735	     -4.53459833	      4.48660392	      0.44197320	      1.20003464	     -0.20228650	      0.00000000	      0.50000000	      0.00000000	      0.25000000	     56.36934012	     -5.82579570	     -5.15585921	     97.71054602	      1.70537074	     -3.41147505	     -1.19700077	      0.00000000	      0.00000000	     41.72261528	     -9.89645215	      0.14358748	     41.00712039	      0.71570927	     -1.54168075	      4.26737653	      0.00000000	      0.00000000	    -59.68756646	      6.43848903	      0.09728606	     44.15992414	    -19.75468866	     23.25992672	     78.82502336	     48.27236057	      0.00000000	      0.00000000	     37.84663411	    -33.65987629	     21.60018898	     85.13387876	     50.24357244	      0.00000000	      0.00000000
      5.02000000	    -21.03849013	     -4.94553557	      4.47769047	      0.44132095	      1.19909806	     -0.20205541	      0.00000000	      0.50000000	      0.00000000	      0.25000000	     57.58282542	     -5.69828103	     -5.41975155	     99.43418085	      1.73545384	     -2.54917981	     -1.40584440	      0.00000000	      0.00000000	     40.52968450	    -10.32799183	      0.22193288	     39.41765827	      0.68796792	     -3.30662341	      4.84708450	      0.00000000	      0.00000000	    -59.61220971	      7.00108833	      0.44712491	     44.30630937	    -19.66484901	     23.32599104	     78.83292167	     48.27503132	      0.00000000	      0.00000000	     37.59583777	    -33.57662486	     21.52918752	     84.96101647	     50.20108211	      0.00000000	      0.00000000
      5.02500000	    -20.77580886	     -5.05511423	      3.87164313	      0.44125032	      1.19903409	     -0.20291310	      0.00000000	      0.50000000	      0.00000000	      0.25000000	     58.71749095	     -5.42439898	     -4.99799899	    100.95951855	      1.76207601	     -1.74030403	     -0.98454684	      0.00000000	      0.00000000	     38.79560781	    -10.70279956	     -0.32951644	     37.57199146	      0.65575496	     -5.27825947	      4.75709133	      0.00000000	      0.00000000	    -59.67471843	      7.18613141	      0.34292004	     45.53145167	    -19.47866216	     24.97022003	     77.63270185	     48.29704526	      0.00000000	      0.00000000	     36.50777999	    -33.20559236	     19.89651460	     84.49845764	     49.99504744	      0.00000000	      0.00000000
      5.03000000	    -20.74036805	     -5.17950103	      2.91358163	      0.44135065	      1.19865524	     -0.20134302	      0.00000000	      0.50000000	      0.00000000	      0.25000000	     60.18638155	     -4.58073263	     -4.47509565	    102.42971047	      1.78773570	     -1.07383390	     -0.96866565	      0.00000000	      0.00000000	     37.30275226	    -11.56573385	     -1.46971770	     35.86945318	      0.62604006	     -7.41672245	      5.78759478	      0.00000000	      0.00000000	    -59.61701693	      6.80518469	      0.88979919	     45.65213002	    -19.38215263	     25.12367355	     77.60846960	     48.30889041	      0.00000000	      0.00000000	     36.34031537	    -34.46201338	     20.48955476	     84.45364975	     50.05019506	      0.00000000	      0.00000000
      5.03500000	    -20.49594513	     -5.19017696	      2.42545514	      0.44137774	      1.19874269	     -0.20125681	      0.00000000	      0.50000000	      0.00000000	      0.25000000	     61.35253333	     -4.38093304	     -4.14889951	    103.81800365	      1.81196599	     -0.32990437	     -0.69401253	      0.00000000	      0.00000000	     35.58609835	    -11.86088811	     -2.07671976	     34.10669397	      0.59527411	     -9.08814896	      6.21121854	      0.00000000	      0.00000000	    -59.80123036	      6.76241859	      1.01969743	     46.03339468	    -19.32144372	     25.52523249	     77.41831039	     48.32149894	      0.00000000	      0.00000000	     36.36178381	    -35.24071608	     21.20050316	     84.41099434	     50.11316074	      0.00000000	      0.00000000
      5.04000000	    -20.27596823	     -5.28469853	      2.02277137	      0.44145279	      1.19903419	     -0.20146029	      0.00000000	      0.50000000	      0.00000000	      0.25000000	     62.39863208	     -4.14947874	     -3.94548955	    105.01646982	      1.83288317	      0.53025481	     -0.45425131	      0.00000000	      0.00000000	     33.98331984	    -12.19747359	     -2.65841752	     32.43524678	      0.56610185	    -10.98282080	      6.68582002	      0.00000000	      0.00000000	    -59.95262707	      6.89421665	      1.28923635	     46.51471510	    -19.39667389	     26.01002758	     77.21815168	     48.34132187	      0.00000000	      0.00000000	     36.26255532	    -35.44452596	     21.39397461	     84.06242233	     50.07364250	      0.00000000	      0.00000000
      5.04500000	    -20.11137991	     -5.36447194	      1.51259289	      0.44150048	      1.19941768	     -0.20131100	      0.00000000	      0.50000000	      0.00000000	      0.25000000	     63.56056361	     -3.86056919	     -3.72985206	    106.05797930	      1.85106094	      0.94893025	     -0.28173616	      0.00000000	      0.00000000	     32.43434473	    -12.58555874	     -3.30908825	     30.86332595	      0.53866666	    -12.77260189	      7.28091605	      0.00000000	      0.00000000	    -60.06491962	      6.92397471	      1.60597926	     47.00378176	    -19.51862640	     26.61369502	     77.05946332	     48.37974948	      0.00000000	      0.00000000	     36.15140618	    -35.47810019	     21.35329863	     83.60731333	     49.99192832	      0.00000000	      0.00000000
      5.05000000	    -19.95458770	     -5.38242991	      1.00125191	      0.44149294	      1.19991024	     -0.20109519	      0.00000000	      0.50000000	      0.00000000	      0.25000000	     64.72414419	     -3.65023523	     -3.50619477	    107.00072850	      1.86751501	      1.41738083	     -0.14740880	      0.00000000	      0.00000000	     30.92832506	    -12.93282348	     -4.03827630	     29.38240583	      0.51281972	    -14.49722272	      8.10901617	      0.00000000	      0.00000000	    -60.20808424	      6.91389580	      1.88403142	     47.53772450	    -19.70030709	     27.23376651	     76.91558436	     48.42579394	      0.00000000	      0.00000000	     36.03414533	    -35.52169703	     21.24254195	     83.14817719	     49.90908039	      0.00000000	      0.00000000
      5.05500000	    -19.74868407	     -5.41373286	      0.54538393	      0.44158072	      1.20077819	     -0.20117186	      0.00000000	      0.50000000	      0.00000000	      0.25000000	     65.79825279	     -3.52713905	     -3.35851131	    107.77680619	      1.88106013	      1.72165081	      0.10099149	      0.00000000	      0.00000000	     29.38751973	    -13.19583748	     -4.62260422	     27.93091857	      0.48748649	    -16.21254194	      8.85038821	      0.00000000	      0.00000000	    -60.45277368	      6.97568254	      2.13993857	     48.15073349	    -19.92365858	     27.98725734	     76.79935744	     48.49005290	      0.00000000	      0.00000000	     35.96979104	    -35.47072443	     21.05450934	     82.64939391	     49.81209493	      0.00000000	      0.00000000
      5.06000000	    -19.67587153	     -5.40693023	      0.05147696	      0.44151111	      1.20145112	     -0.20081388	      0.00000000	      0.50000000	      0.00000000	      0.25000000	     66.94860535	     -3.30399553	     -3.19220319	    108.43180479	      1.89249201	      2.16487620	      0.28362996	      0.00000000	      0.00000000	     28.09737368	    -13.49041564	     -5.27449490	     26.69059566	      0.46583877	    -17.92725803	      9.73037979	      0.00000000	      0.00000000	    -60.56703304	      6.93941464	      2.39272895	     48.65698751	    -20.10315117	     28.66227619	     76.78840798	     48.56195487	      0.00000000	      0.00000000	     35.87168875	    -35.51281500	     20.91967078	     82.25345753	     49.73837260	      0.00000000	      0.00000000
      5.06500000	    -19.80088806	     -5.55004781	     -0.26572133	      0.44106345	      1.20199180	     -0.20079364	      0.00000000	      0.50000000	      0.00000000	      0.25000000	     68.28118660	     -3.22224100	     -3.29442047	    108.90873308	      1.90081598	      2.26847161	      0.36233551	      0.00000000	      0.00000000	     27.25993627	    -13.80745855	     -5.44124036	     25.71632966	      0.44883462	    -19.55124711	     10.53239815	      0.00000000	      0.00000000	    -60.56708318	      7.18426704	      2.73085172	     49.16765649	    -20.15548019	     28.85978542	     76.90754708	     48.59862628	      0.00000000	      0.00000000	     35.84259420	    -35.59608406	     20.85026993	     82.07318986	     49.70366046	      0.00000000	      0.00000000
      5.07000000	    -19.80854729	     -5.52072889	     -0.73580837	      0.44086749	      1.20290795	     -0.20029918	      0.00000000	      0.50000000	      0.00000000	      0.25000000	     69.46472669	     -2.97451973	     -3.15277623	    109.24012027	      1.90659977	      2.34482564	      0.46250246	      0.00000000	      0.00000000	     26.22888480	    -14.08433818	     -6.02482746	     24.73707343	      0.43174338	    -21.38439366	     11.44974210	      0.00000000	      0.00000000	    -60.70524180	      7.12537159	      2.93950171	     49.57580061	    -20.22644615	     29.38818176	     77.05659401	     48.67658407	      0.00000000	      0.00000000	     35.81806062	    -35.65579099	     20.75613133	     81.76428435	     49.64529113	      0.00000000	      0.00000000
      5.07500000	    -19.43401619	     -5.22283108	     -1.35988872	      0.44113122	      1.20458181	     -0.19972461	      0.00000000	      0.50000000	      0.00000000	      0.25000000	     70.17487888	     -2.66587502	     -2.66116472	    109.44601837	      1.91019337	      2.44784101	      0.65229617	      0.00000000	      0.00000000	     24.63780372	    -14.13657258	     -6.95764863	     23.70175481	      0.41367366	    -23.07857751	     12.36240771	      0.00000000	      0.00000000	    -61.22567448	      6.74659247	      3.00111681	     50.40049670	    -20.83081053	     31.02672959	     77.20378791	     48.87320015	      0.00000000	      0.00000000	     35.95306042	    -35.65275954	     20.53523287	     81.18932677	     49.53216107	      0.00000000	      0.00000000
